<?xml version="1.0" encoding="UTF-8" standalone="no"?>
<!-- Created with Inkscape (http://www.inkscape.org/) -->

<svg
   width="200.02498mm"
   height="205.79063mm"
   viewBox="0 0 200.02498 205.79063"
   version="1.1"
   id="svg1"
   xml:space="preserve"
   xmlns:inkscape="http://www.inkscape.org/namespaces/inkscape"
   xmlns:sodipodi="http://sodipodi.sourceforge.net/DTD/sodipodi-0.dtd"
   xmlns="http://www.w3.org/2000/svg"
   xmlns:svg="http://www.w3.org/2000/svg"><sodipodi:namedview
     id="namedview1"
     pagecolor="#505050"
     bordercolor="#eeeeee"
     borderopacity="1"
     inkscape:showpageshadow="0"
     inkscape:pageopacity="0"
     inkscape:pagecheckerboard="0"
     inkscape:deskcolor="#505050"
     inkscape:document-units="mm"><inkscape:page
       x="0"
       y="0"
       width="200.02498"
       height="205.79063"
       id="page2"
       margin="0"
       bleed="0" /></sodipodi:namedview><defs
     id="defs1" /><g
     inkscape:label="Layer 1"
     inkscape:groupmode="layer"
     id="layer1"
     transform="translate(-7.1954872,-38.749909)"><path
       style="fill:#000000"
       d="m 106.31266,243.20458 c -0.2149,-0.77322 -1.18098,-4.44195 -2.14686,-8.15273 -0.96588,-3.71078 -2.45416,-9.30672 -3.3073,-12.43542 -0.85314,-3.1287 -3.412113,-12.53463 -5.686623,-20.90208 -6.50735,-23.93926 -7.20467,-26.19375 -8.10177,-26.19375 -0.88752,0 -2.98809,1.19404 -19.90943,11.31727 -3.76315,2.25132 -7.06714,4.15216 -7.34219,4.22408 -0.36094,0.0944 -0.50009,-0.009 -0.50009,-0.37243 0,-0.27676 3.34323,-6.2069 7.42939,-13.17808 8.01209,-13.66898 8.7102,-14.92934 8.7102,-15.72538 0,-1.21102 -2.03509,-1.89427 -19.44688,-6.52894 -17.55457,-4.67268 -28.93044,-7.67644 -39.95208,-10.5492 -8.4884402,-2.21249 -8.8635402,-2.33613 -8.8635402,-2.9217 0,-0.56716 0.35957,-0.68998 7.6729102,-2.62078 13.80615,-3.64498 40.95667,-10.85925 47.95621,-12.74265 12.05505,-3.24369 12.8266,-3.54216 12.5018,-4.83625 -0.22016,-0.87717 -2.51499,-4.88144 -9.29857,-16.22512 -7.49343,-12.530717 -7.05389,-11.730575 -6.63491,-12.078305 0.35754,-0.296732 0.62227,-0.149791 16.9911,9.431285 8.74513,5.11874 10.35389,5.93723 10.99519,5.59401 0.73749,-0.39469 2.28621,-5.57687 8.41875,-28.170107 4.593193,-16.92201 6.739403,-25.024975 8.900083,-33.602084 0.98978,-3.929062 1.95943,-7.318091 2.15477,-7.531175 0.31186,-0.340179 0.40003,-0.340179 0.72302,0 0.20231,0.213084 1.16272,3.542582 2.13424,7.398884 3.05182,12.113758 14.10539,52.883756 15.87065,58.537332 0.66374,2.12577 1.13135,3.19339 1.48051,3.38026 0.61255,0.32782 1.57646,-0.12653 6.53422,-3.08005 1.85798,-1.10686 5.34268,-3.14821 7.74377,-4.53633 2.40109,-1.388127 6.0325,-3.502337 8.06979,-4.69825 5.17033,-3.035037 5.39908,-3.144405 5.58167,-2.668576 0.1305,0.340066 -2.84613,5.632952 -7.82826,13.919786 -4.62664,7.69555 -8.20445,14.07314 -8.20445,14.62475 0,1.09075 1.48728,1.61171 14.41979,5.05087 4.65667,1.23836 15.84854,4.21572 24.87084,6.61636 9.02229,2.40065 18.96401,5.03111 22.0927,5.84547 6.46032,1.68155 6.87917,1.82711 6.87917,2.39067 0,0.57756 -0.41625,0.7175 -7.80521,2.62412 -16.89373,4.35918 -51.32286,13.5537 -55.5625,14.83831 -3.68187,1.11561 -4.72922,1.64951 -4.84845,2.47155 -0.0894,0.61635 1.08903,3.07987 2.99434,6.25977 5.25026,8.7625 13.0989,22.41109 13.0989,22.77865 0,0.20482 -0.17171,0.37239 -0.38158,0.37239 -0.20988,0 -2.4423,-1.23233 -4.96094,-2.73851 -9.918,-5.93108 -20.232,-12.03051 -21.03653,-12.44045 -1.07935,-0.54997 -1.48791,-0.54347 -1.98511,0.0316 -0.55175,0.63812 -2.03896,5.64368 -5.64036,18.98385 -1.68927,6.2574 -4.44268,16.43724 -6.11868,22.62188 -2.88289,10.6382 -3.89518,14.44867 -6.15025,23.15104 -0.84418,3.25768 -1.02984,3.71416 -1.54031,3.78711 -0.49707,0.071 -0.63654,-0.11897 -0.97114,-1.32292 z m 1.91633,-68.81002 c 2.34053,-6.4414 6.97412,-14.68923 8.83198,-15.72099 1.39258,-0.77338 1.86047,-0.54314 10.99336,5.40949 3.68013,2.39863 6.7426,4.30969 6.8055,4.2468 0.0629,-0.0629 -2.21578,-3.59389 -5.06372,-7.84666 -5.75308,-8.59097 -5.97867,-9.0935 -4.74188,-10.56334 1.57434,-1.871 7.52328,-5.14004 12.45204,-6.84262 l 2.83125,-0.97801 -2.74029,-0.97724 c -5.01574,-1.7887 -10.02836,-4.43106 -12.19915,-6.43068 -1.20955,-1.11418 -1.27238,-1.90112 -0.28723,-3.59747 0.73373,-1.26343 7.69757,-11.65386 9.28097,-13.84772 0.49888,-0.69123 0.82243,-1.25677 0.719,-1.25677 -0.10344,0 -3.2985,1.98439 -7.10014,4.40976 -7.62427,4.86413 -9.17306,5.68517 -10.30052,5.46042 -1.97711,-0.39411 -7.12223,-9.17897 -9.6198,-16.42501 -0.41254,-1.19689 -0.80961,-2.17617 -0.88237,-2.17617 -0.0728,0 -0.45212,0.92794 -0.84303,2.06208 -2.4975,7.24607 -7.620903,16.06841 -9.623263,16.57098 -1.04532,0.26236 -2.71322,-0.62154 -10.37902,-5.50031 -3.80396,-2.42096 -6.9836,-4.40175 -7.06586,-4.40175 -0.0823,0 2.02668,3.20849 4.68653,7.12998 2.65985,3.92149 5.10203,7.58266 5.42706,8.13593 0.84582,1.4398 0.77458,2.34906 -0.26023,3.32155 -2.20604,2.07315 -7.65853,4.94416 -12.44081,6.5507 -1.42179,0.47763 -2.55289,0.89282 -2.51354,0.92264 0.0393,0.0298 1.44075,0.56358 3.11424,1.18611 5.24342,1.95054 10.53218,4.87779 12.03091,6.65894 0.77748,0.92397 0.84374,1.76507 0.23245,2.95051 -0.24015,0.46572 -2.62006,4.1124 -5.28868,8.10374 -2.66862,3.99134 -4.80974,7.29928 -4.75804,7.35097 0.0517,0.0517 2.69949,-1.59368 5.88399,-3.65639 10.01872,-6.48947 10.3206,-6.646 11.7088,-6.07099 1.87392,0.77621 6.342353,8.57274 8.917043,15.55849 0.54975,1.49159 1.06798,2.71128 1.15164,2.71043 0.0837,-8.6e-4 0.55202,-1.10219 1.04081,-2.4474 z"
       id="path1" /></g></svg>
